{"title":"Pororo the Racing Adventure 2013 BRRip 480p x264 AAC - VYTO [P2P","uid":9210752,"size":293641974,"categoryP":"video","categoryS":"movies","magnet":"?xt=urn:btih:cbed9c45d29ea0aac0931d279a58249a54fe0d6f&amp;dn=Pororo+the+Racing+Adventure+2013+BRRip+480p+x264+AAC+-+VYTO+%5BP2P&amp;tr=udp%3A%2F%2Ftracker.openbittorrent.com%3A80&amp;tr=udp%3A%2F%2Fopen.demonii.com%3A1337&amp;tr=udp%3A%2F%2Ftracker.coppersurfer.tk%3A6969&amp;tr=udp%3A%2F%2Fexodus.desync.com%3A6969","seeders":1,"leechers":1,"uploader":"Vitamin_X","files":-1,"time":1384780642,"description":"_______ Visit us at our Semi Public Bittorrent Community ________\n  &lt;a href=&quot;\nhttp://p2pdl.com&quot; rel=&quot;nofollow&quot; target=&quot;_NEW&quot;&gt;\nhttp://p2pdl.com&lt;/a&gt;  _____________________________ &lt;a href=&quot; http://p2pdl.com&quot; rel=&quot;nofollow&quot; target=&quot;_NEW&quot;&gt; http://p2pdl.com&lt;/a&gt;\n\nPororo the Racing Adventure 2013 BRRip 480p x264 AAC - VYTO\n\nPlot:\nCurious little penguin Pororo and his friends accidentally cause \nan airplane to make an emergency landing in their home of Pororo \nVillage. On the airplane are some turtles being shipped to Northpia \nto deliver ice sleds, or racing ice cars. Nevertheless, Pororo \nand his friends believe that the turtles are racers, and the turtles \nend up giving the gang at Pororo Village some lessons and passing on \nthe championship spirit. In the end, Pororo and his friends follow \nthe turtles to Northpia to participate in the race. Upon arriving \nat icily beautiful Northpia's race, Pororo and his friends wind up \nunlikely front-runners, ahead of the polar bears, and make it to the \nfinals. However, a more complicated course awaits Pororo and his friends- \nas does their strongest adversary yet.\n\nIMDb: &lt;a href=&quot;\nhttp://www.imdb.com/title/tt2652476/&quot; rel=&quot;nofollow&quot; target=&quot;_NEW&quot;&gt;\nhttp://www.imdb.com/title/tt2652476/&lt;/a&gt;\n\n\nGeneral\nFormat                         : MPEG-4\nFile size                      : 276 MiB\nDuration                       : 1h 16mn\nOverall bit rate mode          : Variable\nOverall bit rate               : 502 Kbps\n\nVideo\nFormat                         : AVC\nBit rate                       : 459 Kbps\nWidth                          : 720 pixels\nHeight                         : 384 pixels\nDisplay aspect ratio           : 1.85:1\nFrame rate mode                : Constant\nFrame rate                     : 23.976 fps\nBit depth                      : 10 bits\nStream size                    : 252 MiB (91%)\nWriting library                : x264 core 138 r2358 9e941d1\n\nAudio\nFormat                         : AAC\nBit rate                       : 40.0 Kbps\nChannel count                  : 2 channels\nChannel positions              : Front: L R\nSampling rate                  : 48.0 KHz / 24.0 KHz\nStream size                    : 22.0 MiB (8%)\nLanguage                       : English\n\n\nSubtitle                       : No\n\nSource                         : 720p.BluRay.x264-iFPD\n\nScreenshots:\n &lt;a href=&quot;\nhttp://ultraimg.com/images/XGZW4.png&quot; rel=&quot;nofollow&quot; target=&quot;_NEW&quot;&gt;\nhttp://ultraimg.com/images/XGZW4.png&lt;/a&gt; &lt;a href=&quot;\nhttp://ultraimg.com/images/V4Clx.png&quot; rel=&quot;nofollow&quot; target=&quot;_NEW&quot;&gt;\nhttp://ultraimg.com/images/V4Clx.png&lt;/a&gt; &lt;a href=&quot;\nhttp://ultraimg.com/images/M8yf2.png&quot; rel=&quot;nofollow&quot; target=&quot;_NEW&quot;&gt;\nhttp://ultraimg.com/images/M8yf2.png&lt;/a&gt; &lt;a href=&quot;\nhttp://ultraimg.com/images/n7Vm.png&quot; rel=&quot;nofollow&quot; target=&quot;_NEW&quot;&gt;\nhttp://ultraimg.com/images/n7Vm.png&lt;/a&gt; &lt;a href=&quot;\nhttp://ultraimg.com/images/pqx9a.png&quot; rel=&quot;nofollow&quot; target=&quot;_NEW&quot;&gt;\nhttp://ultraimg.com/images/pqx9a.png&lt;/a&gt;\n\n----------------------------------------------------------------------------------------------------\n\n\nEncoded using revolutionary 10bit encoding, which enables us to provide you more crispier \nand sharper images at small sizes, just make sure you follow our instructions without a fault.\nRecommend to you to use latest version of VLC player. Install K-Lite Codec Pack or shark007 codecs\nin case of any kind of problem in playback (For non-VLC Media Player users). Alternatively, install\nCore AVC codecs, the fastest decoder that there is coupled with Community Center Codec Pack and play\non Windows Media Player Classic. Check sample to be sure.\nEnjoy!\n\nEncoder Notes:Looking For Early Access To Anything You Can Provide DVDScr, R5, DVDR, BluRay, Direct\nAudio, Music Releases and Seedboxes. We require dedicated servers, so as to do more \nand fast releases of movies.\nIf You Got anything to offer please contact us at &quot;&lt;a class=&quot;__cf_email__&quot; href=&quot;/cdn-cgi/l/email-protection&quot; data-cfemail=&quot;5020223710382523387e333f3d&quot;&gt;[email&amp;#160;protected]&lt;/a&gt;&lt;script cf-hash='f9e31' type=&quot;text/javascript&quot;&gt;\n/* &lt;![CDATA[ */!function(){try{var t=&quot;currentScript&quot;in document?document.currentScript:function(){for(var t=document.getElementsByTagName(&quot;script&quot;),e=t.length;e--;)if(t[e].getAttribute(&quot;cf-hash&quot;))return t[e]}();if(t&amp;&amp;t.previousSibling){var e,r,n,i,c=t.previousSibling,a=c.getAttribute(&quot;data-cfemail&quot;);if(a){for(e=&quot;&quot;,r=parseInt(a.substr(0,2),16),n=2;a.length-n;n+=2)i=parseInt(a.substr(n,2),16)^r,e+=String.fromCharCode(i);e=document.createTextNode(e),c.parentNode.replaceChild(e,c)}}}catch(u){}}();/* ]]&gt; */&lt;/script&gt;&quot;.\n\nFacebook Fan Page:  \nSearch P2PDL on FB and don't forget to hit like!!!\n\nSupport us, please consider a donation.\n\nFor more of our team uploads visit @           &lt;a href=&quot;\nhttp://thepiratebay.se/user/varuttee&quot; rel=&quot;nofollow&quot; target=&quot;_NEW&quot;&gt;\nhttp://thepiratebay.se/user/varuttee&lt;/a&gt;\t","torrent":{"xt":"urn:btih:cbed9c45d29ea0aac0931d279a58249a54fe0d6f","amp;dn":"Pororo+the+Racing+Adventure+2013+BRRip+480p+x264+AAC+-+VYTO+%5BP2P","amp;tr":["udp%3A%2F%2Ftracker.openbittorrent.com%3A80","udp%3A%2F%2Fopen.demonii.com%3A1337","udp%3A%2F%2Ftracker.coppersurfer.tk%3A6969","udp%3A%2F%2Fexodus.desync.com%3A6969"],"infoHash":"cbed9c45d29ea0aac0931d279a58249a54fe0d6f","infoHashBuffer":{"type":"Buffer","data":[203,237,156,69,210,158,160,170,192,147,29,39,154,88,36,154,84,254,13,111]},"announce":[],"urlList":[]}}